HIERARCHY
ROOT Hips
{
    OFFSET 0.000000 0.000000 0.000000
    CHANNELS 6 Xposition Yposition Zposition Zrotation Xrotation Yrotation
    JOINT Spine
    {
        OFFSET -0.000000 14.517291 0.000000
        CHANNELS 3 Zrotation Xrotation Yrotation
        JOINT Spine1
        {
            OFFSET -0.000000 37.558300 0.000000
            CHANNELS 3 Zrotation Xrotation Yrotation
            JOINT Neck
            {
                OFFSET -0.000000 37.404057 3.400369
                CHANNELS 3 Zrotation Xrotation Yrotation
                JOINT Head
                {
                    OFFSET -0.000000 24.785618 -3.540803
                    CHANNELS 3 Zrotation Xrotation Yrotation
                    End Site
                    {
                        OFFSET -0.000000 35.408028 0.000000
                    }
                }
            }
            JOINT LeftShoulder
            {
                OFFSET 6.992933 33.973492 -0.192664
                CHANNELS 3 Zrotation Xrotation Yrotation
                JOINT LeftArm
                {
                    OFFSET 21.527611 0.000000 0.000000
                    CHANNELS 3 Zrotation Xrotation Yrotation
                    JOINT LeftForeArm
                    {
                        OFFSET 56.353916 0.000000 0.000000
                        CHANNELS 3 Zrotation Xrotation Yrotation
                        JOINT LeftHand
                        {
                            OFFSET 47.774071 0.000000 0.000000
                            CHANNELS 3 Zrotation Xrotation Yrotation
                            End Site
                            {
                                OFFSET 26.556021 0.000000 0.000000
                            }
                        }
                    }
                }
            }
            JOINT RightShoulder
            {
                OFFSET -7.065357 33.973492 -0.192664
                CHANNELS 3 Zrotation Xrotation Yrotation
                JOINT RightArm
                {
                    OFFSET -21.527611 0.000000 0.000000
                    CHANNELS 3 Zrotation Xrotation Yrotation
                    JOINT RightForeArm
                    {
                        OFFSET -56.353916 0.000000 0.000000
                        CHANNELS 3 Zrotation Xrotation Yrotation
                        JOINT RightHand
                        {
                            OFFSET -47.774071 0.000000 0.000000
                            CHANNELS 3 Zrotation Xrotation Yrotation
                            End Site
                            {
                                OFFSET -26.556021 0.000000 0.000000
                            }
                        }
                    }
                }
            }
        }
    }
    JOINT LeftUpLeg
    {
        OFFSET 17.704014 0.000000 0.000000
        CHANNELS 3 Zrotation Xrotation Yrotation
        JOINT LeftLeg
        {
            OFFSET -0.000000 -81.181816 0.000000
            CHANNELS 3 Zrotation Xrotation Yrotation
            JOINT LeftFoot
            {
                OFFSET -0.000000 -62.821102 0.000000
                CHANNELS 3 Zrotation Xrotation Yrotation
                JOINT LeftToeBase
                {
                    OFFSET -0.000000 -11.507608 26.556021
                    CHANNELS 3 Zrotation Xrotation Yrotation
                    End Site
                    {
                        OFFSET -0.000000 0.000000 7.081605
                    }
                }
            }
        }
    }
    JOINT RightUpLeg
    {
        OFFSET -17.704014 0.000000 0.000000
        CHANNELS 3 Zrotation Xrotation Yrotation
        JOINT RightLeg
        {
            OFFSET -0.000000 -81.181816 0.000000
            CHANNELS 3 Zrotation Xrotation Yrotation
            JOINT RightFoot
            {
                OFFSET -0.000000 -62.821102 0.000000
                CHANNELS 3 Zrotation Xrotation Yrotation
                JOINT RightToeBase
                {
                    OFFSET -0.000000 -11.507608 26.556021
                    CHANNELS 3 Zrotation Xrotation Yrotation
                    End Site
                    {
                        OFFSET -0.000000 0.000000 7.081605
                    }
                }
            }
        }
    }
}
MOTION
Frames:    8
Frame Time:    0.008333
20.727816    147.746277    -91.975868    -0.983479    -34.317417    33.165211    -2.215605    -4.749462    0.690543    -13.600900    2.077157    0.506160    8.089428    -11.241973    -5.136186    11.835240    20.242918    -7.807247    10.200833    2.260694    -27.469133    -22.158287    19.941780    -81.047119    -13.306909    -11.850663    -79.460327    13.712795    -23.085222    -5.449662    -18.384367    -12.321254    0.628267    28.208843    -24.883196    80.037193    -9.978374    -16.214752    20.430763    -8.804194    -16.489103    26.639612    33.088703    21.759926    -6.861704    -13.772953    53.932465    -19.340271    18.301874    -42.948689    50.139149    0.000000    0.000000    0.000000    -3.086921    4.779742    -7.344178    11.616197    30.572460    -9.665036    2.952192    2.404593    -13.522586    0.000000    0.000000    0.000000    
20.737576    147.732712    -91.986267    -1.006521    -34.345482    33.083179    -2.237095    -4.764185    0.722964    -13.592286    2.081450    0.517764    8.078334    -11.241203    -5.125821    11.847395    20.279074    -7.798064    10.192237    2.266320    -27.453892    -22.167009    19.933708    -81.067673    -13.276527    -11.854525    -79.472275    13.668138    -23.066042    -5.455084    -18.387339    -12.308450    0.645789    28.233280    -24.886112    80.045197    -9.951952    -16.178957    20.395145    -8.774228    -16.456636    26.670921    33.071171    21.817043    -6.799298    -13.707551    53.949474    -19.362806    18.292549    -42.987801    50.141796    0.000000    0.000000    0.000000    -3.082718    4.781393    -7.296946    11.628598    30.579584    -9.627327    2.959675    2.398348    -13.544039    0.000000    0.000000    0.000000    
20.740782    147.723801    -91.992912    -1.025768    -34.372818    33.006214    -2.271738    -4.767938    0.742791    -13.578155    2.066838    0.522627    8.060726    -11.210194    -5.123573    11.878597    20.295687    -7.792177    10.197560    2.278297    -27.441021    -22.193092    19.919529    -81.068413    -13.240328    -11.843565    -79.496521    13.669429    -23.031153    -5.447821    -18.395863    -12.302836    0.679478    28.221531    -24.826012    80.011459    -9.996559    -16.220625    20.385246    -8.789470    -16.496807    26.696587    33.052299    21.863514    -6.758237    -13.661613    53.977890    -19.381592    18.290442    -43.000301    50.157822    0.000000    0.000000    0.000000    -3.068735    4.784425    -7.249476    11.622508    30.584087    -9.617271    2.985711    2.390724    -13.523527    0.000000    0.000000    0.000000    
20.735117    147.713120    -92.001900    -1.044940    -34.394817    32.944019    -2.307275    -4.762252    0.750970    -13.564784    2.054164    0.524095    8.039342    -11.212821    -5.116675    11.924944    20.330112    -7.785432    10.184753    2.256463    -27.414316    -22.211040    19.917772    -81.077324    -13.213637    -11.805593    -79.509079    13.682746    -22.979898    -5.471130    -18.407776    -12.311871    0.681660    28.252802    -24.782038    80.018036    -9.987302    -16.235748    20.379465    -8.798981    -16.512453    26.648674    33.045353    21.881290    -6.761002    -13.693336    54.022175    -19.369972    18.310163    -42.995808    50.224159    0.000000    0.000000    0.000000    -3.050913    4.781365    -7.219709    11.611441    30.589048    -9.594035    2.974540    2.395403    -13.523840    0.000000    0.000000    0.000000    
20.716627    147.706451    -92.012390    -1.091363    -34.412651    32.878090    -2.334123    -4.765129    0.751295    -13.545251    2.031479    0.521661    8.055602    -11.221760    -5.101323    11.928956    20.367317    -7.778385    10.161454    2.215597    -27.398943    -22.212410    19.963598    -81.083321    -13.149348    -11.802093    -79.513367    13.679333    -22.926649    -5.469178    -18.385208    -12.275635    0.675517    28.275204    -24.748169    80.077278    -9.997370    -16.265165    20.355522    -8.734132    -16.523417    26.597786    33.068520    21.871319    -6.788123    -13.792030    54.060459    -19.264404    18.333668    -42.984272    50.254227    0.000000    0.000000    0.000000    -3.006069    4.764583    -7.187480    11.591784    30.584227    -9.588197    2.990980    2.402301    -13.503786    0.000000    0.000000    0.000000    
20.699898    147.696335    -92.020264    -1.131122    -34.427048    32.838932    -2.368997    -4.770811    0.737845    -13.514049    2.019971    0.515652    8.089690    -11.210365    -5.087149    11.878673    20.366919    -7.769242    10.133142    2.176310    -27.400663    -22.257345    19.962740    -81.051125    -13.148835    -11.708965    -79.520226    13.704004    -22.846844    -5.523284    -18.377068    -12.248761    0.668105    28.274780    -24.704075    80.115677    -10.019819    -16.290588    20.326685    -8.720569    -16.543198    26.583424    33.087719    21.853237    -6.860197    -13.907613    54.089706    -19.142782    18.390474    -42.980789    50.318707    0.000000    0.000000    0.000000    -2.966510    4.750693    -7.207660    11.561505    30.589521    -9.555780    2.988971    2.405059    -13.498567    0.000000    0.000000    0.000000    
20.676018    147.686996    -92.029549    -1.184330    -34.437046    32.794880    -2.382853    -4.786019    0.728224    -13.511199    2.013149    0.511953    8.108852    -11.207949    -5.080248    11.879582    20.376684    -7.767774    10.130763    2.144773    -27.415295    -22.286745    19.947386    -81.027016    -13.148010    -11.634577    -79.544632    13.746640    -22.784277    -5.538407    -18.349079    -12.186842    0.660212    28.251760    -24.673512    80.149757    -10.072031    -16.361311    20.318159    -8.699172    -16.599222    26.564632    33.115635    21.834732    -6.925522    -14.003242    54.095070    -19.009033    18.432581    -42.982513    50.347145    0.000000    0.000000    0.000000    -2.913963    4.722991    -7.207315    11.534447    30.595100    -9.548715    3.025235    2.405919    -13.494562    0.000000    0.000000    0.000000    
20.659252    147.678619    -92.036888    -1.225858    -34.449436    32.765079    -2.403198    -4.794697    0.714506    -13.498120    2.006701    0.506485    8.096322    -11.203292    -5.073992    11.909115    20.379433    -7.759253    10.117102    2.131513    -27.419134    -22.273996    19.955072    -81.033882    -13.106514    -11.622426    -79.561172    13.688311    -22.746082    -5.587608    -18.346348    -12.148763    0.662790    28.314535    -24.653965    80.187492    -10.078191    -16.373886    20.326519    -8.694502    -16.606819    26.537231    33.139702    21.828878    -6.988543    -14.068785    54.085918    -18.947008    18.485258    -42.993671    50.403057    0.000000    0.000000    0.000000    -2.875309    4.708890    -7.219396    11.513243    30.595373    -9.508953    3.060440    2.413210    -13.519030    0.000000    0.000000    0.000000    
